<?xml version="1.0" encoding="UTF-8"?>
<svg version="1.1" xmlns="http://www.w3.org/2000/svg" width="145" height="91">
<path d="M0 0 C47.85 0 95.7 0 145 0 C145 30.03 145 60.06 145 91 C97.15 91 49.3 91 0 91 C0 60.97 0 30.94 0 0 Z " fill="#FBFCFC" transform="translate(0,0)"/>
<path d="M0 0 C2.578125 0.020625 5.15625 0.04125 7.8125 0.0625 C7.8125 6.6625 7.8125 13.2625 7.8125 20.0625 C4.32942708 20.19270833 0.84635417 20.32291667 -2.63671875 20.453125 C-6.66537825 21.14451211 -8.30914006 22.2204437 -11.1875 25.0625 C-13.8985181 29.12902715 -13.70105905 32.2937374 -13.1875 37.0625 C-11.902234 40.91829799 -11.03598142 42.53331219 -7.58203125 44.6875 C-3.58057836 46.30834168 -0.2683709 46.57734849 4 46.6875 C11.50387843 46.95962614 11.50387843 46.95962614 14.8125 48.0625 C14.8125 32.2225 14.8125 16.3825 14.8125 0.0625 C20.4225 0.0625 26.0325 0.0625 31.8125 0.0625 C31.8125 15.5725 31.8125 31.0825 31.8125 47.0625 C34.1225 47.0625 36.4325 47.0625 38.8125 47.0625 C38.8125 31.5525 38.8125 16.0425 38.8125 0.0625 C44.7525 0.0625 50.6925 0.0625 56.8125 0.0625 C56.8125 15.9025 56.8125 31.7425 56.8125 48.0625 C57.4725 47.7325 58.1325 47.4025 58.8125 47.0625 C62.32255768 46.89588334 65.8262021 46.76590435 69.33984375 46.72070312 C74.58365769 46.52394571 77.6387396 45.50791071 81.8125 42.0625 C85.03035602 37.59902229 84.99121889 34.33009807 84.234375 29.11328125 C83.81665178 26.87731059 83.81665178 26.87731059 82.8125 24.0625 C80.89583333 22.89583333 80.89583333 22.89583333 78.8125 22.0625 C78.1525 21.7325 77.4925 21.4025 76.8125 21.0625 C74.608136 20.83299681 72.39857827 20.65174067 70.1875 20.5 C68.08375 20.355625 65.98 20.21125 63.8125 20.0625 C63.8125 13.4625 63.8125 6.8625 63.8125 0.0625 C76.55534329 -0.30865078 85.17100116 0.36355094 94.8125 9.0625 C101.74223109 15.77003531 104.82581653 21.21112573 105.16186523 30.92578125 C105.28964386 41.57643421 103.1005371 49.07878663 95.8125 57.0625 C87.00541149 65.44468512 76.57141841 67.61743671 64.75 67.625 C55.20395243 67.66758912 47.41481336 68.76134332 38.8125 73.0625 C38.8125 68.4425 38.8125 63.8225 38.8125 59.0625 C36.8325 59.0625 34.8525 59.0625 32.8125 59.0625 C32.8125 63.6825 32.8125 68.3025 32.8125 73.0625 C31.1625 72.4025 29.5125 71.7425 27.8125 71.0625 C20.15561806 68.39090013 12.78162669 67.83881811 4.75 67.625 C-6.81766805 67.27079884 -16.64687149 65.49075182 -25.1875 57.0625 C-31.89794079 48.97946905 -34.86965197 40.60233665 -34.5234375 30.109375 C-33.41116612 20.02133229 -28.83259721 12.65105427 -21.1875 6.0625 C-14.19693465 1.66814172 -8.21965831 -0.09261356 0 0 Z " fill="#116B8B" transform="translate(38.1875,11.9375)"/>
</svg>
